<?xml version="1.0" encoding="UTF-8" standalone="no"?>
<!-- Created with Inkscape (http://www.inkscape.org/) -->

<svg
   width="297mm"
   height="210mm"
   viewBox="0 0 297 210"
   version="1.1"
   id="svg1"
   xml:space="preserve"
   inkscape:version="1.4 (e7c3feb1, 2024-10-09)"
   sodipodi:docname="gacc_map.svg"
   xmlns:inkscape="http://www.inkscape.org/namespaces/inkscape"
   xmlns:sodipodi="http://sodipodi.sourceforge.net/DTD/sodipodi-0.dtd"
   xmlns="http://www.w3.org/2000/svg"
   xmlns:svg="http://www.w3.org/2000/svg"><sodipodi:namedview
     id="namedview1"
     pagecolor="#ffffff"
     bordercolor="#000000"
     borderopacity="0.25"
     inkscape:showpageshadow="2"
     inkscape:pageopacity="0.0"
     inkscape:pagecheckerboard="0"
     inkscape:deskcolor="#d1d1d1"
     inkscape:document-units="mm"
     inkscape:zoom="0.54445666"
     inkscape:cx="132.24193"
     inkscape:cy="292.95261"
     inkscape:window-width="1856"
     inkscape:window-height="884"
     inkscape:window-x="1763"
     inkscape:window-y="73"
     inkscape:window-maximized="0"
     inkscape:current-layer="layer1" /><defs
     id="defs1"><rect
       x="624.69317"
       y="448.06475"
       width="212.9931"
       height="61.040705"
       id="rect39" /></defs><g
     inkscape:label="Layer 1"
     inkscape:groupmode="layer"
     id="layer1"><path
       style="fill:#ffd5d5;fill-opacity:1;fill-rule:nonzero;stroke:#000000;stroke-width:0.264583;stroke-opacity:1"
       d="m 149.09814,17.737484 10.17475,0.212607 0.16889,-2.315175 h 0.51544 l 0.68725,1.546311 v 2.233559 l 2.06175,0.859061 2.57718,0.859062 2.57718,-1.030874 h 1.54631 l 0.68725,1.030874 1.3745,0.171812 0.34363,1.718123 0.68725,-0.515437 0.17181,-1.030874 2.06174,2.405372 h 2.23356 l 1.54631,-1.546311 0.68725,1.546311 1.71813,-0.343624 0.17181,-0.68725 1.20269,1.374499 -2.23356,1.030873 -3.95169,2.233559 -0.17181,1.030875 -1.54631,0.515437 -2.23356,2.920807 0.34363,0.859062 h 3.43624 l 2.06175,-1.374499 0.68725,0.343625 -0.51544,1.030874 0.68725,0.85906 2.92081,-0.171812 1.71812,-1.889935 3.60806,-0.171812 2.74899,-4.638929 1.3745,-0.171813 -1.54631,2.577182 -0.51544,1.202687 0.34363,1.202685 1.71812,-1.030872 1.20269,-0.171813 v 1.202685 l 2.57718,1.3745 4.1235,-0.171813 1.54631,-1.889934 h 4.2953 l 0.85907,1.202685 3.09262,-0.171813 1.20268,1.202687 -3.60806,2.577182 -1.03087,-1.718122 -2.23356,0.171813 -2.749,0.859062 -1.54631,1.374497 -3.09262,-0.171812 -0.85906,2.748997 -0.68725,2.233559 -1.54631,1.889935 0.34363,2.920809 2.06175,-0.343625 -0.17182,3.264432 -0.68725,0.859062 v 5.669804 l -0.68725,2.92081 0.17182,2.061747 0.51543,2.233559 1.3745,1.202685 1.03088,2.405372 2.57718,0.171813 2.57718,-2.920807 0.68725,-3.951685 0.85906,-0.859059 -0.17181,-3.092622 -1.88993,-3.09262 -0.51544,-4.810744 0.68725,-3.608056 0.17181,-1.718125 h 1.20269 l 0.34362,1.718125 2.23356,-0.171813 -0.51544,-3.779872 1.54631,-2.920806 2.749,-0.171813 0.85906,1.374497 2.92081,-0.171812 0.34362,1.889934 1.20269,3.436247 -2.40537,4.982554 -0.17181,2.23356 h 2.06174 l 1.71813,-2.577182 1.37449,-0.515438 2.23356,2.748997 0.17182,2.23356 1.3745,1.889935 -2.57719,2.061747 v 3.436244 l -2.749,2.748997 4.1235,2.061747 2.92081,-0.343625 4.81074,-2.23356 6.87249,-5.497991 3.95168,-4.295307 -2.06174,-2.577184 5.15436,-2.405372 2.749,0.859062 3.09262,-0.343625 1.54631,-2.061747 0.34363,-3.951684 0.17181,-2.233557 1.88993,-4.638932 2.92081,-1.718124 6.87249,-1.030873 2.57719,-1.202684 3.26444,-1.030875 h 1.71812 l 0.1718,-2.748997 1.71812,-0.171813 1.88995,-3.092619 v -5.497993 l -0.17183,-1.718123 1.20269,-3.608057 c 0,0 -0.17182,-1.374498 0.51544,-1.889935 0.68725,-0.515437 2.57717,-1.374498 2.57717,-1.374498 l 2.74902,-0.5154372 2.06174,1.7181222 1.03087,2.577185 1.20269,3.779869 0.17182,1.718123 2.57718,3.264433 0.68725,1.202686 1.20269,1.030874 -0.68725,1.202685 -1.88995,0.515438 -1.03087,2.748995 -1.37451,0.859062 -1.5463,0.171812 -1.03087,-1.030874 0.17182,3.092621 -4.63894,4.46712 -0.17182,7.559738 0.68725,1.030875 v 3.779869 l 1.71813,0.68725 -1.20269,1.030872 -1.20269,1.3745 -0.34362,1.374497 -2.92081,-0.171812 -1.03087,1.374499 h -3.60804 l -2.06177,1.54631 v 1.374497 l 4.63894,-0.515437 -1.03087,1.3745 -0.85907,1.202684 -3.09261,1.889935 -0.34362,1.202687 -0.85907,0.515438 -0.34363,4.810741 -0.85906,1.889935 -0.51544,1.546312 -1.88993,1.374497 -0.17181,2.061747 v 0.859063 h -2.23356 l 0.51544,2.061747 2.06174,1.030872 v 1.546312 l -0.34362,0.85906 -1.71812,-0.171812 -0.68725,-1.889935 -1.3745,-1.54631 -0.34363,-1.030875 -0.17181,-1.889934 -1.54631,-0.85906 v 1.374497 l -0.85906,1.202685 0.51544,1.3745 0.51543,1.546309 2.06175,1.889935 -4.12349,4.467119 -44.32757,24.740965 -61.57765,-1.96421 -1.94384,-72.893772 z"
       id="path27" /><path
       style="fill:#ff8080;fill-opacity:1;fill-rule:nonzero;stroke:#000000;stroke-width:0.264583;stroke-opacity:1"
       d="m 95.570573,132.68202 1.975842,0.25772 -0.08591,0.90202 0.859062,0.94496 2.491283,2.79195 -0.0859,0.77316 1.84698,2.1047 0.85906,0.043 1.93289,3.73692 0.42953,2.79195 1.41745,2.62013 2.49128,1.80403 2.57718,1.03088 1.54632,1.4604 0.60134,-0.25772 0.42953,-1.03087 1.88993,-1.20269 0.51544,-2.06175 1.97584,-0.25771 0.34363,-1.46041 0.85906,1.20269 4.2094,0.34362 0.77315,1.71813 3.09262,3.26443 -0.0859,1.28859 1.97584,3.35034 -0.25772,1.28859 1.20269,0.94497 1.03087,0.25772 0.17181,2.31946 2.14766,0.60135 0.21476,1.80403 -0.85906,0.38657 0.81611,0.47249 -0.17181,1.67517 1.20268,0.94496 -0.0859,1.41746 0.8161,0.42953 -0.12886,1.41745 4.89666,2.36241 1.97584,0.0859 2.74899,0.77316 c 0,0 0.12886,0.94496 0.47249,0.98792 0.34362,0.0429 1.28859,0.0429 1.28859,0.0429 l 0.0859,-0.81611 0.77315,-0.38658 -1.28859,-1.28859 -0.0859,-1.20268 -1.67517,-1.24564 0.043,-3.04967 0.98792,-4.51007 1.58926,-0.043 0.25772,-3.95168 1.93288,0.0859 -0.34362,-1.88994 1.4604,-0.34362 -0.0859,-1.11678 2.49128,-0.25772 0.68725,0.94497 0.94496,-1.63222 2.749,-0.0859 0.94497,-1.3745 1.54631,-2.06175 0.25771,-2.49128 1.2886,-0.77315 1.80403,2.14765 3.43624,-2.66309 6.61477,1.20269 2.57719,0.0859 0.68725,-1.63221 1.71812,-0.0859 c 0,0 1.3745,2.14765 1.80403,2.06175 0.42953,-0.0859 1.3745,-0.17182 1.3745,-0.17182 l 0.25772,1.54632 1.63221,-0.25772 1.3745,1.20268 0.42953,-1.71812 1.97584,0.94497 0.77316,-1.11678 -0.60135,-0.85906 0.60135,-0.85907 1.63221,0.0859 1.63222,-1.54631 -1.88994,-0.51543 -3.43624,-0.42954 -0.68725,-0.94496 2.23356,-1.3745 2.40537,0.34362 1.46041,0.94497 0.34362,-0.51544 -0.0859,-1.11678 h 2.749 l 0.60134,-0.68725 1.11678,-0.0859 0.25772,0.85906 1.3745,-0.25772 0.85906,-0.85906 -0.42953,-1.4604 1.3745,-0.68725 0.34362,1.97584 1.88994,1.28859 1.03087,-1.4604 1.54631,0.17181 0.25772,-0.85906 h 1.3745 l 0.60134,0.77315 4.12349,-0.0859 0.42954,0.77315 1.37449,-0.0859 0.34363,-0.94496 2.57718,2.92081 -0.0859,1.37449 1.28859,0.0859 0.34362,-1.11678 1.80403,0.0859 1.03088,-1.11678 -0.17182,-1.03088 2.14766,-1.03087 2.8349,1.11678 0.94497,1.80403 3.77987,2.749 1.03087,-0.0859 1.63222,3.43624 0.0859,3.43625 1.97585,1.71812 -0.17182,1.3745 h -0.68725 l 0.17182,3.17853 1.4604,1.80402 0.94497,0.0859 0.17181,-0.77315 1.03087,0.60134 -0.25772,1.03087 1.03088,0.51544 -0.25772,1.28859 1.71812,1.03088 0.25772,1.63221 2.57718,0.34363 v 0.85906 l 1.3745,1.88993 1.80403,1.46041 -0.0859,-0.0859 h 1.54631 l 1.28859,-0.94497 0.60134,-3.35034 0.17181,-5.41208 -0.60134,-3.09262 -2.40537,-3.17853 -2.23356,-3.17853 -1.28859,-5.06846 -3.17853,-3.86577 -1.97584,-2.92081 -1.11678,-4.1235 -1.11678,-1.03087 0.94497,-1.28859 -0.51544,-2.06175 1.03087,-1.03087 -0.34362,-1.46041 0.94497,-0.77315 -0.77316,-1.20269 0.25772,-0.25772 0.34362,-2.66309 1.3745,0.68725 v -3.60806 l 1.97584,-0.51543 v 0 l 0.77316,0.34362 1.71812,-1.20268 v -1.20269 l 1.54631,-1.80403 1.46041,0.42953 0.0859,-2.92081 1.11678,-0.94497 -0.0859,-1.37449 1.71812,-1.03088 0.17181,-1.11678 2.8349,-0.85906 1.20269,-2.23356 v -1.20268 l 1.28859,-0.34363 1.46041,-1.88993 2.31946,-0.34363 v -1.20268 l 0.85906,-0.25772 0.25772,-1.46041 -0.51544,-4.037585 0.68725,-0.687247 v -1.718122 l -0.42953,-1.11678 0.34363,-0.773157 0.0859,-3.77987 -0.77315,-0.515437 -1.20269,0.171812 -2.31946,-2.834902 0.85906,-1.030872 -0.17181,-1.460405 -0.85907,-0.687249 0.0859,-1.632218 -0.85906,-1.460402 -2.66309,-1.3745 -3.09262,-2.920806 -0.25772,-1.80403 -1.11678,0.08591 -0.0859,1.202687 -2.66309,-1.288592 -0.34362,2.834902 -1.28859,0.601342 -0.0859,1.11678 -1.3745,0.25772 -1.11678,2.147652 -1.97584,0.601342 -2.14765,5.669807 v 2.147652 l -3.17853,2.147654 -3.86577,0.601343 -2.23356,-1.374497 -3.00672,-3.693965 -0.0859,-2.663089 -1.4604,-1.546312 -2.23356,1.030874 -5.06846,-0.429529 -1.28859,-2.319467 -2.06175,0.515437 0.0859,2.147652 -2.23356,0.601345 -2.14766,3.436244 -0.17181,2.319465 -1.63221,-0.0859 -1.03088,-1.975842 -0.42953,0.687249 -0.17181,2.577185 -1.54631,-1.202687 -1.54631,1.718124 -4.46712,-0.25772 -0.42953,1.718123 0.85906,1.288592 -2.8349,0.601345 0.77315,1.030872 -0.17181,1.54631 -1.28859,-0.773155 -1.46041,-0.773155 -1.71812,1.374497 0.94497,1.202687 0.0859,1.288588 -2.06174,0.85906 0.25772,2.14766 -1.2886,0.60134 0.77316,0.77316 -2.23356,0.17181 -0.51544,1.03087 -0.25771,-1.71812 0.60134,-0.42953 -0.34363,-1.80403 -6.27114,-0.0859 -0.68725,0.94497 -16.66579,0.17181 -0.60135,-6.013425 -51.71549,-3.951681 -16.408074,36.681916 z"
       id="path26" /><path
       style="fill:#ff0000;fill-opacity:1;fill-rule:nonzero;stroke:#000000;stroke-width:0.264583;stroke-opacity:1"
       d="m 117.7534,98.379311 24.02145,1.508884 20.7019,0.06036 0.31483,-7.754599 -0.44682,-7.298068 -1.4894,-1.936221 -0.59576,0.297878 -0.7447,-1.638342 1.4894,-0.893641 -3.7235,-3.127742 -0.89364,-7.149127 -4.02139,-9.681109 1.19152,-2.383044 -0.14894,-1.04258 -0.7447,-1.04258 0.89364,-2.085163 -0.14894,-11.617332 -1.93622,-2.234102 1.34046,-2.680923 -9.23429,-9.830048 -60.022876,5.659726 -10.723692,38.575498 12.808854,29.341204 22.043144,-0.29788 z"
       id="path25" /><path
       style="fill:#ff8080;fill-opacity:1;fill-rule:nonzero;stroke:#000000;stroke-width:0.264583;stroke-opacity:1"
       d="m 60.745155,5.9057788 15.467515,3.6559585 17.154882,3.6559577 12.936468,1.406138 22.77943,1.968593 20.24839,1.124911 0.56245,0.843682 0.56246,4.218414 1.12491,3.093503 -0.56246,7.593143 1.40614,1.687367 0.28123,2.249821 -9.56174,0.281226 -5.06209,-0.843683 -0.56246,-1.12491 0.84368,-0.843682 -0.56245,-1.968593 -1.12491,0.562454 -1.9686,1.968595 -3.93718,2.249819 1.68736,1.406138 -2.53105,1.687365 -1.68736,-1.124908 -0.28123,-0.843685 v 0 l -2.24982,-0.281226 v 4.218414 l -5.34332,-1.124911 -4.21842,1.124911 -25.029249,-2.812278 -1.12491,6.187006 -21.092067,0.281229 -15.467516,-20.248384 z"
       id="path24" /><path
       style="fill:#800000;fill-opacity:1;fill-rule:nonzero;stroke:#000000;stroke-width:0.264583;stroke-opacity:1"
       d="m 51.183418,117.27189 0.843682,3.65596 h 2.249821 l 16.029971,11.2491 15.467515,2.53105 1.406139,-3.37473 8.436827,1.40614 0.281225,-2.24982 9.280512,0.84368 -0.28123,1.9686 h 2.24982 l -0.28123,-1.68737 8.43683,1.40614 3.37473,-28.96644 h 3.09351 l -0.28123,-1.12491 -3.37473,-0.28123 v -4.218413 l -23.904346,-2.24982 v 1.406138 h -3.374731 l 0.281228,-1.968592 -7.874373,-1.406139 -25.872934,-7.030688 -7.874373,21.373294 z"
       id="path23" /><path
       style="fill:#ffaaaa;fill-opacity:1;fill-rule:nonzero;stroke:#000000;stroke-width:0.264583;stroke-opacity:1"
       d="m 21.373295,79.306173 0.562455,3.655959 -2.531048,0.281226 1.687365,4.499642 2.531048,4.218413 -0.562455,2.249821 2.812276,3.374731 v 2.812275 l 1.968594,0.28123 3.655957,3.93718 2.531049,1.68737 -0.281229,1.12491 2.812275,1.96859 2.531049,2.81228 -0.281228,4.78087 3.093503,1.12491 11.811558,1.40613 0.281228,-1.96859 -1.406138,-1.40614 0.843684,-1.96859 2.531047,-4.49964 1.968593,-1.12491 -1.968593,-1.40614 v -3.0935 0 L 52.0271,89.711592 41.902906,63.838658 25.029253,64.963568 Z"
       id="path22" /><path
       style="fill:#ffd5d5;fill-opacity:1;fill-rule:nonzero;stroke:#000000;stroke-width:0.264583;stroke-opacity:1"
       d="m 32.341169,70.306892 3.937188,10.124191 3.093503,-2.812274 15.748743,25.591701 1.968592,-6.749455 4.78087,1.12491 5.343322,-0.281228 2.531049,-4.218413 1.968592,3.093503 1.968593,-3.374732 13.217697,2.531049 3.937185,-27.841529 -9.561737,-2.249821 1.12491,-3.937185 -1.12491,-2.812275 2.531049,-2.249821 v 2.249821 h 1.687364 l 1.12491,-5.624552 1.968593,-1.406139 4.78087,4.499642 0.562454,-0.562454 -3.093503,-6.187009 1.12491,-2.531046 -2.249821,-1.968593 -5.343323,0.843683 v -4.78087 0 l -8.999281,0.281228 -1.687367,-4.218414 -0.562454,-2.531046 0.562454,-2.812277 -3.655957,1.12491 L 63.276201,31.778715 62.432519,29.810122 60.182698,28.96644 42.465363,39.37186 31.216258,61.870065 Z"
       id="path21" /><path
       style="fill:#ff0000;fill-opacity:1;fill-rule:nonzero;stroke:#000000;stroke-width:0.264583;stroke-opacity:1"
       d="m 21.092067,81.555994 2.812276,0.281228 -0.843683,1.12491 h 2.812276 l 0.281228,-3.655959 h 2.812276 l -0.843685,-2.812275 v -3.374731 l 6.749463,-1.406139 -0.843682,-1.968592 2.249821,-8.436827 2.24982,0.281228 0.562454,-4.499642 3.937185,-1.12491 0.843685,-9.561737 -23.060661,-4.499642 -2.249821,1.687367 0.843683,5.343324 -4.218414,5.343324 1.968593,5.624549 -1.406137,3.937188 3.093503,6.187006 -1.12491,1.687364 1.968592,2.249821 -0.843682,1.687367 1.12491,2.249818 z"
       id="path20" /><path
       style="fill:#800000;fill-opacity:1;fill-rule:nonzero;stroke:#000000;stroke-width:0.264583;stroke-opacity:1"
       d="m 52.870782,53.15201 -8.155599,-1.687367 -0.843682,2.249821 -3.374731,-1.12491 0.281226,-2.531047 -16.311198,-4.499641 -1.12491,1.12491 -1.687366,-1.12491 -2.531048,-2.249821 0.562455,-2.249821 V 36.84081 l 4.218414,-5.343323 4.218412,-11.249102 -0.562454,-2.812276 3.655957,0.281228 0.281229,-2.249821 -3.655957,-0.562455 1.687364,-2.531048 V 2.5310481 l 7.030688,3.6559584 h 1.968595 L 39.37186,8.4368269 39.934313,3.6559582 39.090631,0.56245513 62.713748,6.468234 59.90147,22.779433 v 3.655958 l 1.406139,2.812275 -5.624552,8.155601 1.968595,1.687364 -2.531049,3.65596 z"
       id="path19" /><path
       style="fill:#ff0000;fill-opacity:1;fill-rule:nonzero;stroke:#000000;stroke-width:0.264583;stroke-opacity:1"
       d="m 62.024227,143.63505 1.546313,2.40538 6.357053,28.17721 1.374498,3.43624 2.577184,-0.34362 3.951682,2.23356 3.436244,-2.92081 7.903366,6.52887 1.718122,0.51543 0.515438,1.3745 1.718122,-0.17181 c 0,0 0.68725,2.23356 1.374497,2.23356 0.68725,0 2.061747,-0.34363 2.061747,-0.34363 l -2.577184,4.46712 -4.467117,0.51544 -2.23356,-1.71812 -4.467119,-4.63893 -3.264434,-2.40538 -6.185241,-3.26443 -6.872491,0.17181 -5.497992,-2.06174 -1.3745,-0.17182 -0.687247,0.51544 0.171813,1.20269 -2.748997,3.26443 -3.264435,1.3745 -0.171812,-3.43625 1.3745,-2.40537 -1.030875,-0.34362 -1.889935,2.74899 -2.061747,4.1235 0.171813,2.06174 -2.577185,3.09262 -4.982554,4.98256 -6.357054,3.60806 -4.638931,2.57718 -4.467119,0.34363 0.515434,-0.68725 8.590616,-4.29531 4.638929,-4.98256 2.061747,-3.26443 -0.515434,-1.3745 -1.889935,0.51544 -5.497994,-1.3745 v -3.26443 l -2.233559,-0.68725 -3.09262,-1.71812 -1.718125,-4.98256 3.779872,-5.49799 3.09262,-0.34363 2.061747,-1.37449 v -2.40538 l -6.013429,-0.34362 -1.889935,-1.88994 -1.030875,-3.09261 0.343625,-1.3745 4.295307,-2.06175 3.092622,2.749 0.515437,-2.40538 -6.013431,-6.35705 1.889935,-1.54631 1.030874,-1.3745 2.405372,0.17181 1.202685,-2.57718 0.859063,-2.06175 4.123494,-2.40537 4.123494,0.34362 2.748997,0.85907 1.374497,0.85906 9.793301,-0.68725 1.202684,1.71812 z"
       id="path28" /><path
       style="fill:#ff0000;fill-opacity:1;fill-rule:nonzero;stroke:#000000;stroke-width:0.264583;stroke-opacity:1"
       d="m 25.600028,202.22304 -2.405372,0.51543 -1.374498,1.03088 -0.687249,-0.51544 -1.030874,1.3745 -1.030873,-0.34363 -3.264433,2.57719 0.859061,-1.03087 2.233559,-1.3745 0.171813,-1.54631 1.718122,0.51543 1.030874,-1.88993 1.889935,0.68725 0.515437,-1.20269 z"
       id="path29" /><path
       style="fill:#ff0000;fill-opacity:1;fill-rule:nonzero;stroke:#000000;stroke-width:0.264583;stroke-opacity:1"
       d="m 9.6214868,208.23647 1.8899352,0.51543 0.515437,-0.85906 1.718122,0.34363 1.030874,-1.71813 -1.889935,1.3745 -0.171812,-1.3745 -1.374499,0.51544 0.171813,1.20269 z"
       id="path30" /><path
       style="fill:#800000;fill-opacity:1;fill-rule:nonzero;stroke:#000000;stroke-width:0.264583;stroke-opacity:1"
       d="m 31.098021,127.4847 1.374497,1.71812 -0.171812,1.71813 2.23356,0.51543 2.405372,-2.74899 -1.718123,-2.57719 -1.889934,-0.68725 z"
       id="path31" /><path
       style="fill:#aa0000;fill-opacity:1;fill-rule:nonzero;stroke:#000000;stroke-width:0.264583;stroke-opacity:1"
       d="m 28.692649,122.67396 3.436245,0.17181 -1.030873,-1.3745 -1.889937,-0.68725 -2.061747,0.34363 v 0.85906 z"
       id="path32" /><path
       style="fill:#aa0000;fill-opacity:1;fill-rule:nonzero;stroke:#000000;stroke-width:0.264583;stroke-opacity:1"
       d="m 21.132909,119.0659 2.233559,-0.17181 -0.687249,-1.3745 -1.374498,-0.34362 z"
       id="path33" /><path
       style="fill:#aa0000;fill-opacity:1;fill-rule:nonzero;stroke:#000000;stroke-width:0.264583;stroke-opacity:1"
       d="m 13.229545,114.77059 1.718122,-0.17181 v -1.20269 z"
       id="path34" /><path
       style="fill:#aa0000;fill-opacity:1;fill-rule:nonzero;stroke:#000000;stroke-width:0.264583;stroke-opacity:1"
       d="m 25.77184,120.4404 2.577184,-0.51544 -0.343625,-0.68725 z"
       id="path35" /><path
       style="fill:#aa0000;fill-opacity:1;fill-rule:nonzero;stroke:#000000;stroke-width:0.264583;stroke-opacity:1"
       d="m 10.652361,115.28603 0.730202,-0.7302 -0.171813,-1.03088 -0.816108,1.20269 z"
       id="path36" /><path
       style="fill:#ff8080;fill-opacity:1;fill-rule:nonzero;stroke:#000000;stroke-width:0.264583;stroke-opacity:1"
       d="m 256.51571,194.49149 0.85907,4.81074 2.9208,-0.51544 2.57719,0.51544 1.3745,-1.03087 4.12349,0.68724 2.40538,-2.57718 -0.17182,-1.88993 -6.18524,-1.03088 z"
       id="path37" /><path
       style="fill:#ff8080;fill-opacity:1;fill-rule:nonzero;stroke:#000000;stroke-width:0.264583;stroke-opacity:1"
       d="m 272.32245,197.45525 0.2577,0.77315 0.73022,-0.30067 -0.38658,-0.7302 z"
       id="path38" /><path
       style="fill:#ff8080;fill-opacity:1;fill-rule:nonzero;stroke:#000000;stroke-width:0.264583;stroke-opacity:1"
       d="m 272.70903,195.3935 0.60134,0.7302 0.60135,-0.42953 -0.30067,-0.55839 -0.73023,-0.34362 z"
       id="path39" /><text
       xml:space="preserve"
       transform="matrix(0.26458333,0,0,0.26458333,26.802714,2.0617472)"
       id="text39"
       style="font-style:normal;font-variant:normal;font-weight:bold;font-stretch:normal;font-size:32px;font-family:'.Geeza Pro Interface';-inkscape-font-specification:'.Geeza Pro Interface, Bold';font-variant-ligatures:normal;font-variant-caps:normal;font-variant-numeric:normal;font-variant-east-asian:normal;text-align:start;writing-mode:lr-tb;direction:ltr;white-space:pre;shape-inside:url(#rect39);fill:#000000;fill-opacity:1"><tspan
         x="624.69336"
         y="477.25902"
         id="tspan1">SA</tspan></text><text
       xml:space="preserve"
       style="font-style:normal;font-variant:normal;font-weight:bold;font-stretch:normal;font-size:8.46667px;font-family:'.Geeza Pro Interface';-inkscape-font-specification:'.Geeza Pro Interface, Bold';font-variant-ligatures:normal;font-variant-caps:normal;font-variant-numeric:normal;font-variant-east-asian:normal;text-align:start;writing-mode:lr-tb;direction:ltr;text-anchor:start;fill:#000000;fill-opacity:1;stroke-width:0.264583"
       x="42.953068"
       y="162.87802"
       id="text40"><tspan
         sodipodi:role="line"
         id="tspan40"
         style="stroke-width:0.264583"
         x="42.953068"
         y="162.87802">AK</tspan></text><text
       xml:space="preserve"
       style="font-style:normal;font-variant:normal;font-weight:bold;font-stretch:normal;font-size:8.46667px;font-family:'.Geeza Pro Interface';-inkscape-font-specification:'.Geeza Pro Interface, Bold';font-variant-ligatures:normal;font-variant-caps:normal;font-variant-numeric:normal;font-variant-east-asian:normal;text-align:start;writing-mode:lr-tb;direction:ltr;text-anchor:start;fill:#000000;fill-opacity:1;stroke-width:0.264583"
       x="37.580143"
       y="20.676428"
       id="text41"><tspan
         sodipodi:role="line"
         id="tspan41"
         style="stroke-width:0.264583"
         x="37.580143"
         y="20.676428">NW</tspan></text><text
       xml:space="preserve"
       style="font-style:normal;font-variant:normal;font-weight:bold;font-stretch:normal;font-size:8.46667px;font-family:'.Geeza Pro Interface';-inkscape-font-specification:'.Geeza Pro Interface, Bold';font-variant-ligatures:normal;font-variant-caps:normal;font-variant-numeric:normal;font-variant-east-asian:normal;text-align:start;writing-mode:lr-tb;direction:ltr;text-anchor:start;fill:#000000;fill-opacity:1;stroke-width:0.264583"
       x="19.930223"
       y="59.790672"
       id="text42"><tspan
         sodipodi:role="line"
         id="tspan42"
         style="stroke-width:0.264583"
         x="19.930223"
         y="59.790672">ON</tspan></text><text
       xml:space="preserve"
       style="font-style:normal;font-variant:normal;font-weight:bold;font-stretch:normal;font-size:8.46667px;font-family:'.Geeza Pro Interface';-inkscape-font-specification:'.Geeza Pro Interface, Bold';font-variant-ligatures:normal;font-variant-caps:normal;font-variant-numeric:normal;font-variant-east-asian:normal;text-align:start;writing-mode:lr-tb;direction:ltr;text-anchor:start;fill:#000000;fill-opacity:1;stroke-width:0.264583"
       x="28.864458"
       y="97.24575"
       id="text43"><tspan
         sodipodi:role="line"
         id="tspan43"
         style="stroke-width:0.264583"
         x="28.864458"
         y="97.24575">OS</tspan></text><text
       xml:space="preserve"
       style="font-style:normal;font-variant:normal;font-weight:bold;font-stretch:normal;font-size:8.46667px;font-family:'.Geeza Pro Interface';-inkscape-font-specification:'.Geeza Pro Interface, Bold';font-variant-ligatures:normal;font-variant-caps:normal;font-variant-numeric:normal;font-variant-east-asian:normal;text-align:start;writing-mode:lr-tb;direction:ltr;text-anchor:start;fill:#000000;fill-opacity:1;stroke-width:0.264583"
       x="55.667171"
       y="73.535652"
       id="text44"><tspan
         sodipodi:role="line"
         id="tspan44"
         style="stroke-width:0.264583"
         x="55.667171"
         y="73.535652">GB</tspan></text><text
       xml:space="preserve"
       style="font-style:normal;font-variant:normal;font-weight:bold;font-stretch:normal;font-size:8.46667px;font-family:'.Geeza Pro Interface';-inkscape-font-specification:'.Geeza Pro Interface, Bold';font-variant-ligatures:normal;font-variant-caps:normal;font-variant-numeric:normal;font-variant-east-asian:normal;text-align:start;writing-mode:lr-tb;direction:ltr;text-anchor:start;fill:#000000;fill-opacity:1;stroke-width:0.264583"
       x="82.813522"
       y="114.7706"
       id="text45"><tspan
         sodipodi:role="line"
         id="tspan45"
         style="stroke-width:0.264583"
         x="82.813522"
         y="114.7706">SW</tspan></text><text
       xml:space="preserve"
       style="font-style:normal;font-variant:normal;font-weight:bold;font-stretch:normal;font-size:8.46667px;font-family:'.Geeza Pro Interface';-inkscape-font-specification:'.Geeza Pro Interface, Bold';font-variant-ligatures:normal;font-variant-caps:normal;font-variant-numeric:normal;font-variant-east-asian:normal;text-align:start;writing-mode:lr-tb;direction:ltr;text-anchor:start;fill:#000000;fill-opacity:1;stroke-width:0.264583"
       x="116.1451"
       y="80.75177"
       id="text46"><tspan
         sodipodi:role="line"
         id="tspan46"
         style="stroke-width:0.264583"
         x="116.1451"
         y="80.75177">RM</tspan></text><text
       xml:space="preserve"
       style="font-style:normal;font-variant:normal;font-weight:bold;font-stretch:normal;font-size:8.46667px;font-family:'.Geeza Pro Interface';-inkscape-font-specification:'.Geeza Pro Interface, Bold';font-variant-ligatures:normal;font-variant-caps:normal;font-variant-numeric:normal;font-variant-east-asian:normal;text-align:start;writing-mode:lr-tb;direction:ltr;text-anchor:start;fill:#000000;fill-opacity:1;stroke-width:0.264583"
       x="95.041649"
       y="30.665964"
       id="text47"><tspan
         sodipodi:role="line"
         id="tspan47"
         style="stroke-width:0.264583"
         x="95.041649"
         y="30.665964">NR</tspan></text><text
       xml:space="preserve"
       style="font-style:normal;font-variant:normal;font-weight:bold;font-stretch:normal;font-size:8.46667px;font-family:'.Geeza Pro Interface';-inkscape-font-specification:'.Geeza Pro Interface, Bold';font-variant-ligatures:normal;font-variant-caps:normal;font-variant-numeric:normal;font-variant-east-asian:normal;text-align:start;writing-mode:lr-tb;direction:ltr;text-anchor:start;fill:#000000;fill-opacity:1;stroke-width:0.264583"
       x="177.32753"
       y="78.589371"
       id="text48"><tspan
         sodipodi:role="line"
         id="tspan48"
         style="stroke-width:0.264583"
         x="177.32753"
         y="78.589371">EA</tspan></text></g></svg>
